<?xml version="1.0" encoding="utf-8"?>
<!-- Generator: Adobe Illustrator 23.0.1, SVG Export Plug-In . SVG Version: 6.00 Build 0)  -->
<svg version="1.1" id="Capa_1" xmlns="http://www.w3.org/2000/svg" xmlns:xlink="http://www.w3.org/1999/xlink" x="0px" y="0px"
	 viewBox="0 0 512 512" style="enable-background:new 0 0 512 512;" xml:space="preserve">
<style type="text/css">
	.st0{fill:#FF3D78;}
</style>
<g>
	<path class="st0" d="M479.1,98h-41.4c-4.2,0-7.5,3.4-7.5,7.5s3.4,7.5,7.5,7.5h41.4c9.9,0,17.9,8,17.9,17.9v254.7h-25.6
		c-4.2,0-7.5,3.4-7.5,7.5c0,4.2,3.4,7.5,7.5,7.5h25.6v53.2c0,9.9-8,17.9-17.9,17.9H32.9c-9.9,0-17.9-8-17.9-17.9v-53.2h424.2
		c4.2,0,7.5-3.4,7.5-7.5c0-4.2-3.4-7.5-7.5-7.5H15.1V131c0-9.9,8-17.9,17.9-17.9h42.4c4.2,0,7.5-3.4,7.5-7.5S79.5,98,75.4,98H32.9
		C14.8,98,0,112.8,0,131v323c0,18.2,14.8,32.9,32.9,32.9h446.1c18.2,0,32.9-14.8,32.9-32.9V131C512,112.8,497.2,98,479.1,98
		L479.1,98z"/>
	<path class="st0" d="M338.9,245.6v-28.9c0-4.2-3.4-7.5-7.5-7.5s-7.5,3.4-7.5,7.5v21.4h-15.1v-21.4c0-28.8-23.5-52.3-52.3-52.3
		s-52.3,23.5-52.3,52.3v21.4h-15.1v-21.4c0-4.2-3.4-7.5-7.5-7.5s-7.5,3.4-7.5,7.5v28.9c0,42.9,33,78.3,74.9,82.1v17.8h-33.6
		c-4.2,0-7.5,3.4-7.5,7.5s3.4,7.5,7.5,7.5h82.3c4.2,0,7.5-3.4,7.5-7.5s-3.4-7.5-7.5-7.5H264v-17.8
		C306,323.9,338.9,288.5,338.9,245.6L338.9,245.6z M264,312.6v-15.2c22.8-3.3,40.9-21.4,44.2-44.2h15.2
		C320,284.3,295.2,309.1,264,312.6L264,312.6z M256.5,179.5c18,0,33,12.8,36.5,29.7h-73C223.5,192.2,238.5,179.5,256.5,179.5z
		 M189.6,253.1h15.2c0.6,4.1,1.7,8.1,3.2,12c1.6,3.9,5.9,5.7,9.8,4.2c3.9-1.6,5.7-5.9,4.2-9.8c-1.8-4.4-2.7-9.1-2.7-13.9v-21.4h74.5
		v21.4c0,20.5-16.7,37.2-37.2,37.2c-5.7,0-11.2-1.3-16.3-3.8c-3.7-1.8-8.2-0.3-10.1,3.5c-1.8,3.7-0.3,8.2,3.5,10.1
		c4.9,2.4,10.1,4,15.4,4.7v15.2C217.8,309.1,193,284.3,189.6,253.1L189.6,253.1z"/>
	<path class="st0" d="M256,256.8c4.2,0,7.5-3.4,7.5-7.5v-3.7c0-4.2-3.4-7.5-7.5-7.5s-7.5,3.4-7.5,7.5v3.7
		C248.5,253.4,251.8,256.8,256,256.8L256,256.8z"/>
	<path class="st0" d="M145.9,413.2c-4.7-3.1-10.6-3.5-15.6-0.8c-5,2.6-8,7.8-8,13.4v16.8c0,5.6,3.1,10.7,8,13.4
		c2.2,1.2,4.7,1.8,7.1,1.8c3,0,5.9-0.9,8.5-2.6l12.4-8.4c4.2-2.8,6.7-7.5,6.7-12.6c0-5-2.5-9.7-6.7-12.6L145.9,413.2z M149.8,434.2
		l-12.4,8.4c0,0-0.1,0-0.1,0h0c0,0,0,0,0-0.1l0-16.8c0,0,0.1-0.1,0.1,0l12.4,8.4C149.9,434.1,149.9,434.1,149.8,434.2L149.8,434.2z"
		/>
	<path class="st0" d="M198.4,426.6c-4.2,0-7.5,3.4-7.5,7.5c0,4.2,3.4,7.5,7.5,7.5h47.5c4.2,0,7.5-3.4,7.5-7.5c0-4.2-3.4-7.5-7.5-7.5
		H198.4z"/>
	<path class="st0" d="M292.7,457.7c-13,0-23.6-10.6-23.6-23.6c0-13,10.6-23.6,23.6-23.6s23.6,10.6,23.6,23.6
		C316.3,447.1,305.7,457.7,292.7,457.7z M292.7,425.6c-4.7,0-8.5,3.8-8.5,8.5c0,4.7,3.8,8.5,8.5,8.5c4.7,0,8.5-3.8,8.5-8.5
		C301.2,429.4,297.4,425.6,292.7,425.6z"/>
	<path class="st0" d="M467.5,441.6H339.6c-4.2,0-7.5-3.4-7.5-7.5c0-4.2,3.4-7.5,7.5-7.5h127.9c4.2,0,7.5,3.4,7.5,7.5
		C475,438.3,471.6,441.6,467.5,441.6z"/>
	<path class="st0" d="M86.2,418.1v32.1c0,4.2,3.4,7.5,7.5,7.5c4.2,0,7.5-3.4,7.5-7.5v-32.1c0-4.2-3.4-7.5-7.5-7.5
		C89.6,410.6,86.2,413.9,86.2,418.1z"/>
	<path class="st0" d="M55.2,418.1v32.1c0,4.2,3.4,7.5,7.5,7.5s7.5-3.4,7.5-7.5v-32.1c0-4.2-3.4-7.5-7.5-7.5S55.2,413.9,55.2,418.1z"
		/>
	<path class="st0" d="M350.4,201.7c0.5,0,1,0,1.5-0.2c4.1-0.8,6.7-4.8,5.9-8.9c-9.7-47.9-52.3-82.7-101.3-82.7
		s-91.6,34.8-101.3,82.7c-0.8,4.1,1.8,8.1,5.9,8.9c4.1,0.8,8.1-1.8,8.9-5.9c8.3-40.9,44.7-70.6,86.5-70.6s78.2,29.7,86.5,70.6
		C343.7,199.3,346.9,201.7,350.4,201.7z"/>
	<path class="st0" d="M106.7,327.3c2.5,3.3,7.2,3.9,10.6,1.4c3.3-2.5,3.9-7.2,1.4-10.6c-23.1-30.4-35.4-66.6-35.4-104.8
		c0-95.5,77.7-173.2,173.2-173.2s173.2,77.7,173.2,173.2c0,38.2-12.2,74.5-35.4,104.8c-2.5,3.3-1.9,8,1.4,10.6c1.4,1,3,1.5,4.6,1.5
		c2.3,0,4.5-1,6-3c25.1-33,38.4-72.4,38.4-114c0-103.8-84.4-188.2-188.2-188.2S68.3,109.6,68.3,213.3
		C68.3,254.9,81.6,294.3,106.7,327.3L106.7,327.3z"/>
	<path class="st0" d="M358.5,309.9c1.4,1.2,3.2,1.8,4.9,1.8c2.1,0,4.3-0.9,5.7-2.7c22.7-26.7,35.2-60.7,35.2-95.7
		c0-30.1-9-59-26-83.7c-2.4-3.4-7.1-4.3-10.5-1.9c-3.4,2.4-4.3,7.1-1.9,10.5c15.3,22.2,23.3,48.2,23.3,75.2
		c0,31.5-11.2,62-31.6,85.9C355,302.5,355.4,307.2,358.5,309.9L358.5,309.9z"/>
	<path class="st0" d="M256.5,80.6c33.2,0,64.9,12.3,89.4,34.6c3.1,2.8,7.8,2.6,10.6-0.5c2.8-3.1,2.6-7.8-0.5-10.6
		c-27.3-24.8-62.6-38.5-99.5-38.5c-81.5,0-147.8,66.3-147.8,147.8c0,34.5,12.1,68,34.1,94.4c1.5,1.8,3.6,2.7,5.8,2.7
		c1.7,0,3.4-0.6,4.8-1.7c3.2-2.7,3.6-7.4,1-10.6c-19.8-23.8-30.6-53.9-30.6-84.8C123.8,140.2,183.3,80.6,256.5,80.6L256.5,80.6z"/>
</g>
</svg>
