<?xml version="1.0" encoding="utf-8"?>
<!-- Generator: Adobe Illustrator 23.0.1, SVG Export Plug-In . SVG Version: 6.00 Build 0)  -->
<svg version="1.1" id="Layer_1" xmlns="http://www.w3.org/2000/svg" xmlns:xlink="http://www.w3.org/1999/xlink" x="0px" y="0px"
	 viewBox="0 0 512 512" style="enable-background:new 0 0 512 512;" xml:space="preserve">
<style type="text/css">
	.st0{fill:#FF3D78;}
</style>
<g id="Page-1">
	<g transform="translate(0 -1)">
		<path id="Shape" class="st0" d="M486.4,231.4h-8.5v-8.5c0-6.1-3.4-11.8-8.7-14.8C465.9,92.7,371.4,0.9,256,0.9
			S46.1,92.7,42.8,208.1c-5.3,3-8.7,8.6-8.7,14.8v8.5h-8.5C11.5,231.4,0,242.9,0,257v102.4C0,373.5,11.5,385,25.6,385h8.5v8.5
			c0,9.4,7.6,17.1,17.1,17.1h34.1c14.1,0,25.6-11.5,25.6-25.6V231.4c0-10.7-6.7-20.2-16.7-23.9C97.8,120.7,169.2,52.2,256,52.2
			s158.2,68.5,161.8,155.3c-10,3.7-16.7,13.2-16.7,23.9V385c0,14.1,11.5,25.6,25.6,25.6h34.1c9.4,0,17.1-7.6,17.1-17.1V385h8.5
			c14.1,0,25.6-11.5,25.6-25.6V257C512,242.9,500.5,231.4,486.4,231.4L486.4,231.4z M25.6,367.9c-4.7,0-8.5-3.8-8.5-8.5V257
			c0-4.7,3.8-8.5,8.5-8.5h8.5v119.5H25.6z M93.9,385c0,4.7-3.8,8.5-8.5,8.5H51.2V222.9h34.1c4.7,0,8.5,3.8,8.5,8.5V385z M256,35.1
			c-95.5,0.2-174.2,75.2-178.8,170.7H59.9C64.8,101.1,151.2,18.7,256,18.7s191.2,82.4,196.1,187.1h-17.3
			C430.2,110.4,351.5,35.3,256,35.1L256,35.1z M460.8,393.5h-34.1c-4.7,0-8.5-3.8-8.5-8.5V231.4c0-4.7,3.8-8.5,8.5-8.5h34.1V393.5z
			 M494.9,359.4c0,4.7-3.8,8.5-8.5,8.5h-8.5V248.5h8.5c4.7,0,8.5,3.8,8.5,8.5V359.4z"/>
		<path class="st0" d="M349.9,129H162.1c-18.9,0-34.1,15.3-34.1,34.1v315.7c0,18.9,15.3,34.1,34.1,34.1h187.7
			c18.9,0,34.1-15.3,34.1-34.1V163.1C384,144.3,368.7,129,349.9,129z M319,146.1l-6.2,12.3c-1.4,2.9-4.4,4.7-7.6,4.7h-98.4
			c-3.2,0-6.2-1.8-7.6-4.7l-6.2-12.3H319z M349.9,495.9H162.1c-9.4,0-17.1-7.6-17.1-17.1v-4.7c5.2,3.1,11.1,4.7,17.1,4.7h187.7
			c6,0,11.9-1.7,17.1-4.7v4.7C366.9,488.3,359.3,495.9,349.9,495.9z M349.9,461.8H162.1c-9.4,0-17.1-7.6-17.1-17.1V163.1
			c0-9.4,7.6-17.1,17.1-17.1h11.8l10,20c4.3,8.7,13.2,14.2,22.9,14.1h98.4c9.7,0,18.6-5.5,22.9-14.1l10-20h11.8
			c9.4,0,17.1,7.6,17.1,17.1v281.6C366.9,454.2,359.3,461.8,349.9,461.8z"/>
		<path class="st0" d="M256,299.7c-14.1,0-25.6,11.5-25.6,25.6c0,14.1,11.5,25.6,25.6,25.6c14.1,0,25.6-11.5,25.6-25.6
			C281.6,311.1,270.1,299.7,256,299.7z M256,333.8c-4.7,0-8.5-3.8-8.5-8.5s3.8-8.5,8.5-8.5c4.7,0,8.5,3.8,8.5,8.5
			S260.7,333.8,256,333.8z"/>
		<path class="st0" d="M225.8,283c-3.3-3.3-8.7-3.3-12.1,0c-11.2,11.2-17.5,26.4-17.5,42.2s6.3,31,17.5,42.2c3.3,3.2,8.7,3.2,12-0.1
			c3.3-3.3,3.3-8.6,0.1-12c-16.7-16.7-16.7-43.7,0-60.3c1.6-1.6,2.5-3.8,2.5-6C228.3,286.8,227.4,284.6,225.8,283L225.8,283z"/>
		<path class="st0" d="M298.2,283c-3.3-3.2-8.7-3.2-12,0.1c-3.3,3.3-3.3,8.6-0.1,12c16.7,16.7,16.7,43.7,0,60.3
			c-2.2,2.1-3.1,5.3-2.3,8.3c0.8,3,3.1,5.3,6.1,6.1c3,0.8,6.2-0.1,8.3-2.3c11.2-11.2,17.5-26.4,17.5-42.2S309.4,294.2,298.2,283
			L298.2,283z"/>
		<path class="st0" d="M201.7,271c3.2-3.3,3.2-8.7-0.1-12c-3.3-3.3-8.6-3.3-12-0.1c-36.6,36.7-36.6,96.1,0,132.7
			c2.1,2.2,5.3,3.1,8.3,2.3c3-0.8,5.3-3.1,6.1-6.1s-0.1-6.2-2.3-8.3C171.7,349.6,171.7,301,201.7,271L201.7,271z"/>
		<path class="st0" d="M310.3,258.9c-3.3,3.3-3.3,8.7,0,12.1c29.9,30,29.9,78.6,0,108.6c-2.2,2.1-3.1,5.3-2.3,8.3
			c0.8,3,3.1,5.3,6.1,6.1c3,0.8,6.2-0.1,8.3-2.3c36.6-36.7,36.6-96.1,0-132.7C319,255.6,313.6,255.6,310.3,258.9L310.3,258.9z"/>
	</g>
</g>
</svg>
