<?xml version="1.0" encoding="utf-8"?>
<!-- Generator: Adobe Illustrator 23.0.1, SVG Export Plug-In . SVG Version: 6.00 Build 0)  -->
<svg version="1.1" id="Capa_1" xmlns="http://www.w3.org/2000/svg" xmlns:xlink="http://www.w3.org/1999/xlink" x="0px" y="0px"
	 viewBox="0 0 512 512" style="enable-background:new 0 0 512 512;" xml:space="preserve">
<style type="text/css">
	.st0{fill:#FF3D78;}
</style>
<g>
	<path class="st0" d="M316.3,497h-74c-4.1,0-7.5,3.4-7.5,7.5s3.4,7.5,7.5,7.5h74c17.2,0,31.1-14,31.1-31.1s-14-31.1-31.1-31.1h-31.2
		v-55.6c67.8-13.6,119-73.5,119-145.2c0-12.4-10.1-22.5-22.5-22.5s-22.5,10.1-22.5,22.5c0,46.7-31.3,86.3-74,98.9v-26
		c39.4-12.4,68-49.2,68-92.6c0-13.5,0-116.4,0-132.2c0-18-5-35.6-14.4-50.9c-2.2-3.5-6.8-4.6-10.3-2.4c-3.5,2.2-4.6,6.8-2.4,10.3
		c7.2,11.7,11.3,25,12.1,38.7h-47.8c-11,0-20,9-20,20c0,11,9,20,20,20h48v10.4h-48c-11,0-20,9-20,20c0,11,9,20,20,20h48v10.4h-48
		c-11,0-20,9-20,20c0,11,9,20,20,20H338c-2,37.9-29.8,69-65.8,76.2c-49.3,9.9-95.5-26.6-98.1-76.2h47.8c11,0,20-9,20-20
		c0-11-9-20-20-20h-48v-10.4h48c11,0,20-9,20-20c0-11-9-20-20-20h-48v-10.4h48c11,0,20-9,20-20c0-11-9-20-20-20H174
		c2.2-43.3,38.1-77.8,82-77.8c17.5,0,34.1,5.4,48.2,15.7c3.4,2.4,8,1.7,10.5-1.7c2.4-3.4,1.7-8-1.7-10.5C296.4,6.4,276.7,0,256,0
		c-53.5,0-97.1,43.5-97.1,97.1v132.2c0,43.4,28.6,80.2,68,92.6v26c-42.7-12.6-74-52.2-74-98.9c0-12.4-10.1-22.5-22.5-22.5
		s-22.5,10.1-22.5,22.5c0,71.7,51.2,131.6,119,145.2v55.6h-31.2c-17.2,0-31.1,14-31.1,31.1s14,31.1,31.1,31.1h11.7
		c4.1,0,7.5-3.4,7.5-7.5s-3.4-7.5-7.5-7.5h-11.7c-8.9,0-16.1-7.2-16.1-16.1c0-8.9,7.2-16.1,16.1-16.1h120.7
		c8.9,0,16.1,7.2,16.1,16.1C332.5,489.8,325.2,497,316.3,497L316.3,497z M290.1,117.8c-2.8,0-5-2.2-5-5s2.2-5,5-5h48v10H290.1z
		 M290.1,168.2c-2.8,0-5-2.2-5-5s2.2-5,5-5h48v10H290.1z M285.1,213.6c0-2.8,2.2-5,5-5h48v10h-48
		C287.4,218.6,285.1,216.3,285.1,213.6z M221.9,208.6c2.8,0,5,2.2,5,5s-2.2,5-5,5h-48v-10H221.9z M221.9,158.2c2.8,0,5,2.2,5,5
		s-2.2,5-5,5h-48v-10H221.9z M226.9,112.8c0,2.8-2.2,5-5,5h-48v-10h48C224.6,107.8,226.9,110,226.9,112.8z M241.9,325.3
		c4.7,0.7,9.7,1,14.1,1c4.8,0,9.7-0.4,14.1-1v25.8c-9.4,1.3-18.8,1.3-28.1,0c0,0-0.1,0-0.1,0L241.9,325.3L241.9,325.3z M122.9,249
		c0-4.1,3.4-7.5,7.5-7.5c4.1,0,7.5,3.4,7.5,7.5c0,66.4,54.9,119.7,121,118c63.4-1.6,115.1-53.6,115.1-118c0-4.1,3.4-7.5,7.5-7.5
		c4.1,0,7.5,3.4,7.5,7.5c0,66.4-48.9,121.6-112.6,131.5C195.7,393,122.9,330.4,122.9,249L122.9,249z M241.9,396.4
		c4.2,0.4,9.4,0.7,14.1,0.7c4.7,0,9.8-0.3,14.1-0.7v53.4h-28.2L241.9,396.4L241.9,396.4z"/>
</g>
</svg>
