<?xml version="1.0" encoding="utf-8"?>
<!-- Generator: Adobe Illustrator 23.0.1, SVG Export Plug-In . SVG Version: 6.00 Build 0)  -->
<svg version="1.1" id="Capa_1" xmlns="http://www.w3.org/2000/svg" xmlns:xlink="http://www.w3.org/1999/xlink" x="0px" y="0px"
	 viewBox="0 0 512 512" style="enable-background:new 0 0 512 512;" xml:space="preserve">
<style type="text/css">
	.st0{fill:#FF3D78;}
</style>
<g>
	<path class="st0" d="M504.5,201.7c4.1,0,7.5-3.4,7.5-7.5V57.1c0-10.5-8.5-19-19-19h-22.5V14.3c0-7.9-6.4-14.3-14.3-14.3h-66.7
		c-4.1,0-7.5,3.4-7.5,7.5s3.4,7.5,7.5,7.5h66v253.8H324.3v-12.7c0-10.7-2.5-20.8-6.9-29.9h99.9c4.1,0,7.5-3.4,7.5-7.5
		s-3.4-7.5-7.5-7.5H307.4c-11-12.5-26.4-21.1-43.9-23V61.9c0,0,0,0,0,0c0-25.8,21-46.9,46.9-46.9h49.2c4.1,0,7.5-3.4,7.5-7.5
		S363.7,0,359.5,0h-49.2c-23.4,0-43.9,13.1-54.4,32.4C245.5,13.1,225.1,0,201.6,0H55.8c-7.9,0-14.3,6.4-14.3,14.3v23.8H19
		c-10.5,0-19,8.5-19,19v223.1c0,25.9,21.1,47,47,47h140.7v6.6c0,28.1,17.1,52.3,41.4,62.7v15c-32.2-1.6-57.9-28.3-57.9-60.9V346
		c0-4.1-3.4-7.5-7.5-7.5s-7.5,3.4-7.5,7.5v4.6c0,40.9,32.5,74.3,72.9,75.9v28.3h-25c-17.6,0-32,14.3-32,32v13.4
		c0,6.6,5.3,11.9,11.9,11.9h76.4c4.1,0,7.5-3.4,7.5-7.5s-3.4-7.5-7.5-7.5h-73.3v-10.3c0-9.3,7.6-17,17-17h103.8c9.3,0,17,7.6,17,17
		V497h-34.5c-4.1,0-7.5,3.4-7.5,7.5s3.4,7.5,7.5,7.5H328c6.6,0,11.9-5.3,11.9-11.9v-13.4c0-17.6-14.3-32-32-32h-25v-28.3
		c40.5-1.6,72.9-35,72.9-75.9V346c0-4.1-3.4-7.5-7.5-7.5s-7.5,3.4-7.5,7.5v4.6c0,32.6-25.7,59.3-57.9,60.9v-15
		c24.3-10.5,41.4-34.6,41.4-62.7v-6.6H465c25.9,0,47-21.1,47-47v-56c0-4.1-3.4-7.5-7.5-7.5s-7.5,3.4-7.5,7.5v56
		c0,17.7-14.4,32-32,32H324.3v-28.4h132c7.9,0,14.3-6.4,14.3-14.3V53.1H493c2.2,0,4,1.8,4,4v137.1
		C497,198.4,500.4,201.7,504.5,201.7L504.5,201.7z M47,312.2c-17.7,0-32-14.4-32-32V57.1c0-2.2,1.8-4,4-4h22.5v216.4
		c0,7.9,6.4,14.3,14.3,14.3h39c4.1,0,7.5-3.4,7.5-7.5s-3.4-7.5-7.5-7.5H56.5V15h145.2c25.8,0,46.9,21,46.9,46.9v126.5
		c-17.4,1.9-32.9,10.4-43.9,23H94.8c-4.1,0-7.5,3.4-7.5,7.5s3.4,7.5,7.5,7.5h99.9c-4.4,9-6.9,19.2-6.9,29.9v12.7h-63
		c-4.1,0-7.5,3.4-7.5,7.5s3.4,7.5,7.5,7.5h63v28.4L47,312.2L47,312.2z M244.1,454.8v-28.2h23.8v28.2H244.1z M267.9,411.6h-23.8V401
		c3.9,0.7,7.8,1.1,11.9,1.1s8-0.4,11.9-1.1L267.9,411.6L267.9,411.6z M309.3,333.8c0,29.4-23.9,53.3-53.3,53.3
		c-29.4,0-53.3-23.9-53.3-53.3v-77.6c0-29.4,23.9-53.3,53.3-53.3c29.4,0,53.3,23.9,53.3,53.3V333.8z"/>
	<path class="st0" d="M417.2,57.5H301.8c-4.1,0-7.5,3.4-7.5,7.5s3.4,7.5,7.5,7.5h115.4c4.1,0,7.5-3.4,7.5-7.5S421.4,57.5,417.2,57.5
		z"/>
	<path class="st0" d="M417.2,108.8H301.8c-4.1,0-7.5,3.4-7.5,7.5s3.4,7.5,7.5,7.5h115.4c4.1,0,7.5-3.4,7.5-7.5
		S421.4,108.8,417.2,108.8z"/>
	<path class="st0" d="M417.2,160H301.8c-4.1,0-7.5,3.4-7.5,7.5s3.4,7.5,7.5,7.5h115.4c4.1,0,7.5-3.4,7.5-7.5S421.4,160,417.2,160z"
		/>
	<path class="st0" d="M94.8,72.5h115.4c4.1,0,7.5-3.4,7.5-7.5s-3.4-7.5-7.5-7.5H94.8c-4.1,0-7.5,3.4-7.5,7.5S90.6,72.5,94.8,72.5z"
		/>
	<path class="st0" d="M94.8,123.8h115.4c4.1,0,7.5-3.4,7.5-7.5s-3.4-7.5-7.5-7.5H94.8c-4.1,0-7.5,3.4-7.5,7.5S90.6,123.8,94.8,123.8
		z"/>
	<path class="st0" d="M94.8,175h115.4c4.1,0,7.5-3.4,7.5-7.5s-3.4-7.5-7.5-7.5H94.8c-4.1,0-7.5,3.4-7.5,7.5S90.6,175,94.8,175z"/>
	<path class="st0" d="M256,325.3c-4.1,0-7.5,3.4-7.5,7.5v26.5c0,4.1,3.4,7.5,7.5,7.5s7.5-3.4,7.5-7.5v-26.5
		C263.5,328.6,260.1,325.3,256,325.3z"/>
</g>
</svg>
